<svg width="27" height="25" viewBox="0 0 27 25" fill="none" xmlns="http://www.w3.org/2000/svg">
<path d="M24.75 8.33336C24.7609 8.2608 24.7609 8.18718 24.75 8.11461V8.03128C24.7307 7.97314 24.7042 7.91722 24.6713 7.86461C24.6566 7.83461 24.6377 7.80658 24.615 7.78128L24.5025 7.64586L24.2775 7.48961L14.1525 2.28128C13.9815 2.18986 13.7875 2.14172 13.59 2.14172C13.3925 2.14172 13.1985 2.18986 13.0275 2.28128L2.9025 7.48961L2.80125 7.56253L2.6775 7.64586C2.64482 7.67992 2.61823 7.71861 2.59875 7.76045C2.56276 7.79034 2.53235 7.82554 2.50875 7.86461C2.47954 7.91032 2.45685 7.95934 2.44125 8.01045C2.43496 8.04492 2.43496 8.08014 2.44125 8.11461C2.3639 8.17637 2.29913 8.25046 2.25 8.33336V16.6667C2.25146 16.8523 2.30646 17.0342 2.40931 17.1935C2.51216 17.3529 2.65913 17.4839 2.835 17.5729L12.96 22.7813C13.0065 22.8064 13.0555 22.8273 13.1062 22.8438H13.2188C13.4036 22.8853 13.5964 22.8853 13.7812 22.8438H13.8938L14.0512 22.7813L24.1762 17.5729C24.35 17.4825 24.4947 17.3509 24.5955 17.1917C24.6964 17.0325 24.7497 16.8513 24.75 16.6667V8.33336ZM13.5 12.3646L5.6925 8.33336L8.7975 6.75003L16.4812 10.8125L13.5 12.3646ZM13.5 4.32295L21.3075 8.33336L18.7875 9.63545L11.1037 5.56253L13.5 4.32295ZM4.5 10.1042L12.375 14.1875V20.1042L4.5 16.0521V10.1042ZM14.625 20.1042V14.1875L18 12.4375V15.625L20.25 14.5834V11.2709L22.5 10.1146V16.0521L14.625 20.1042Z" fill="white"/>
</svg>
